# xmcd
#
# Track frame offsets: 
#        180
#        20524
#        41442
#        63224
#        80578
#        102720
#        122539
#        141744
#        159489
#        181185
#        200073
#        222437
#        242899
#        262907
#        282716
#        301763
#
# Disc length: 4249 seconds
#
# Revision: 2
# Processed by: cddbd v1.4PL0 Copyright (c) Steve Scherf et al.
# Submitted via: ExactAudioCopy v0.95a3
#
DISCID=ef109710
DTITLE=Various Artist - Se Botó La Salsa Serie 32
DYEAR=1997
DGENRE=Salsa
TTITLE0=Quiero Llenarte - Frankie Ruiz
TTITLE1=25 Rosas - Paquito Guzman
TTITLE2=No Me Acostumbro - Rey Ruiz
TTITLE3=Desesperado - Luis Enrique
TTITLE4=Hechizo De Luna - Edgar Joel
TTITLE5=Por Instinto - David Pabon
TTITLE6=Amame - Lalo Rodriguez
TTITLE7=Dejala Bailar - Soledad Bravo
TTITLE8=La Carta - Oscar D'Leon
TTITLE9=Los Olores Del Amor - Amilcar and Willie Colon
TTITLE10=Nada Comun - Las Chicas Del Can
TTITLE11=El Me Ama Yo Le Amo - Orquesta De De Luz
TTITLE12=Amor Compartido - Marianella
TTITLE13=La Magia De Tus Quince Años - Salsa Kids
TTITLE14=El Amor Me Lo Compras A Mi - Pupy Santiago
TTITLE15=Todo Quedo Quedo - Guaco
EXTD=
EXTT0=
EXTT1=
EXTT2=
EXTT3=
EXTT4=
EXTT5=
EXTT6=
EXTT7=
EXTT8=
EXTT9=
EXTT10=
EXTT11=
EXTT12=
EXTT13=
EXTT14=
EXTT15=
PLAYORDER=
